<?xml version="1.0" standalone="no"?>
<!DOCTYPE svg PUBLIC "-//W3C//DTD SVG 20010904//EN"
 "http://www.w3.org/TR/2001/REC-SVG-20010904/DTD/svg10.dtd">
<svg version="1.0" xmlns="http://www.w3.org/2000/svg"
 width="500.000000pt" height="500.000000pt" viewBox="0 0 500.000000 500.000000"
 preserveAspectRatio="xMidYMid meet">

<g transform="translate(0.000000,500.000000) scale(0.100000,-0.100000)"
fill="#000000" stroke="none">
<path d="M2240 4264 c-68 -9 -226 -47 -288 -70 -259 -98 -432 -257 -487 -449
-28 -94 -8 -303 39 -415 5 -12 -10 -24 -56 -47 -188 -92 -298 -235 -306 -393
-3 -66 -1 -79 20 -110 57 -84 154 -128 297 -137 l83 -6 -6 -46 c-44 -315 -15
-715 80 -1096 68 -273 148 -390 329 -484 71 -37 167 -61 173 -43 2 8 22 2 61
-17 64 -33 242 -94 335 -116 57 -14 62 -14 74 4 13 18 14 18 73 0 34 -11 93
-22 132 -26 40 -3 81 -12 92 -19 39 -25 144 -46 197 -39 l50 7 -7 44 c-9 64
-37 140 -88 241 -24 48 -73 147 -109 218 -102 202 -174 414 -194 571 -8 67 4
184 19 188 7 2 64 18 127 35 95 26 133 31 217 31 132 0 235 -15 325 -47 60
-21 97 -26 210 -30 156 -6 190 2 214 50 20 38 11 87 -24 129 l-27 33 33 -24
c19 -13 53 -26 77 -29 39 -4 48 -1 73 25 58 58 62 190 10 287 -22 38 -37 48
-253 156 -127 63 -256 135 -288 158 l-56 44 34 33 c42 39 46 58 10 49 -46 -11
-71 2 -84 45 -6 22 -25 65 -41 96 -34 65 -34 65 -17 65 6 0 40 13 74 29 76 36
150 102 174 156 23 49 24 126 4 165 -18 35 -67 73 -114 89 -47 15 -184 14
-256 -4 -33 -8 -63 -14 -67 -15 -3 0 -10 15 -13 33 -4 17 -32 105 -61 194 -56
171 -105 277 -151 330 -44 51 -127 100 -216 129 -72 23 -101 27 -237 29 -85 2
-171 1 -190 -1z m360 -99 c60 -14 159 -60 192 -91 34 -30 74 -87 97 -139 11
-25 91 -245 91 -251 0 -1 -25 -1 -57 0 l-56 1 -17 70 c-77 314 -155 385 -425
385 -100 0 -120 -10 -57 -31 54 -17 72 -43 72 -101 0 -46 12 -99 60 -262 25
-87 18 -97 -77 -115 -71 -13 -166 -39 -267 -71 -33 -11 -63 -17 -67 -15 -4 3
-10 23 -14 45 -9 55 -57 201 -95 288 -37 88 -34 117 17 169 l36 35 -34 -7
c-49 -10 -125 -47 -199 -94 -35 -23 -66 -39 -69 -36 -3 3 14 24 38 47 97 91
371 183 571 191 67 2 212 -8 260 -18z m818 -687 c58 -28 65 -89 18 -145 -27
-32 -125 -84 -196 -104 -60 -16 -238 -17 -380 -1 -63 7 -171 20 -240 27 -378
43 -693 51 -854 21 -94 -17 -242 -60 -261 -76 -7 -6 -14 -8 -17 -5 -3 3 -11
-1 -18 -10 -7 -8 -17 -15 -23 -15 -6 0 -19 -7 -29 -17 -10 -9 -18 -12 -18 -6
0 12 129 84 200 111 129 49 274 72 460 72 172 0 213 -4 770 -81 270 -37 451
-16 523 59 55 58 55 139 -1 175 l-27 18 34 -5 c18 -3 45 -12 59 -18z m-963
-328 c396 -60 399 -61 573 -59 95 1 177 -2 182 -7 10 -11 70 -129 70 -138 0
-12 -31 -5 -84 19 -62 28 -69 29 -95 13 -14 -9 -27 -8 -58 4 -76 31 -90 -3
-72 -177 6 -66 9 -141 5 -166 -11 -72 -62 -148 -129 -192 -47 -32 -57 -43 -57
-67 0 -32 15 -51 83 -104 43 -34 77 -80 77 -105 0 -13 -131 -55 -239 -76 -70
-15 -98 -15 -194 -6 -62 6 -139 18 -172 25 -33 8 -61 13 -63 11 -18 -18 88
-72 177 -91 36 -7 96 -14 132 -14 l66 0 5 -142 c5 -127 10 -157 42 -265 41
-139 105 -295 177 -430 105 -197 169 -334 169 -361 0 -12 -91 11 -146 38 -45
22 -90 58 -164 133 l-102 102 62 -89 c71 -102 78 -116 58 -116 -27 0 -231 70
-267 92 -20 12 -63 47 -95 78 -53 49 -57 51 -39 20 12 -19 47 -62 78 -97 42
-47 52 -63 38 -63 -34 0 -222 73 -338 132 -86 43 -108 59 -172 120 -24 22 -43
37 -43 34 0 -4 14 -33 30 -66 17 -33 27 -60 22 -60 -14 0 -96 62 -135 103 -38
40 -81 112 -104 177 -67 190 -143 663 -143 891 0 184 31 407 71 519 46 126 80
181 142 227 106 77 252 134 402 156 57 8 190 7 250 -3z m758 -234 c41 -18 60
-34 79 -67 48 -80 169 -165 378 -265 254 -121 243 -113 263 -175 15 -41 17
-64 10 -98 -13 -70 -27 -71 -126 -11 -49 30 -106 56 -134 62 -26 5 -178 13
-338 18 -266 8 -343 15 -374 34 -15 10 -14 26 3 26 13 0 21 31 47 180 6 36 12
118 12 183 0 111 1 119 21 127 39 16 105 10 159 -14z m-93 -628 c36 -11 137
-44 225 -73 202 -67 200 -67 325 -74 100 -6 105 -7 108 -29 l4 -23 -104 8
c-57 4 -119 8 -140 8 -20 0 -34 3 -32 6 2 4 -13 10 -33 14 -20 4 -54 15 -74
26 -37 19 -201 62 -357 95 l-83 18 28 27 c19 19 35 26 48 22 11 -3 49 -14 85
-25z m590 -108 l25 -20 -23 0 c-13 0 -37 14 -55 31 -18 16 -44 37 -59 45 -16
8 -28 17 -28 20 0 7 109 -52 140 -76z"/>
<path d="M2330 2970 c0 -10 58 -50 73 -50 21 0 3 30 -27 44 -40 19 -46 20 -46
6z"/>
<path d="M2463 2956 c-23 -20 -28 -32 -28 -71 0 -39 5 -51 28 -71 65 -55 157
-12 157 73 0 80 -95 122 -157 69z m17 -41 c0 -8 -4 -15 -10 -15 -5 0 -10 7
-10 15 0 8 5 15 10 15 6 0 10 -7 10 -15z"/>
<path d="M2286 2881 c18 -19 88 -23 109 -7 19 14 15 15 -49 16 -44 0 -66 -4
-60 -9z"/>
<path d="M3190 2664 c0 -5 11 -22 25 -37 14 -15 23 -27 19 -27 -4 0 5 -14 21
-31 27 -27 35 -30 85 -27 30 1 61 -1 68 -5 18 -12 16 49 -3 65 -9 7 -22 19
-30 26 -22 19 -185 51 -185 36z"/>
</g>
</svg>
